<svg xmlns="http://www.w3.org/2000/svg" width="112" height="48" viewBox="0 0 112 48" shape-rendering="crispEdges"><rect width="112" height="48" fill="none"/>
<rect x="6" y="1" width="4" height="3" fill="#f8c79f"/>
<rect x="6" y="2" width="1" height="1" fill="#1f2937"/>
<rect x="9" y="2" width="1" height="1" fill="#1f2937"/>
<rect x="5" y="4" width="6" height="5" fill="#f59e0b"/>
<rect x="4" y="5" width="1" height="2" fill="#92400e"/>
<rect x="11" y="5" width="1" height="2" fill="#92400e"/>
<rect x="5" y="9" width="2" height="3" fill="#ca8a04"/>
<rect x="9" y="9" width="2" height="3" fill="#ca8a04"/>


<rect x="22" y="2" width="4" height="3" fill="#f8c79f"/>
<rect x="22" y="3" width="1" height="1" fill="#1f2937"/>
<rect x="25" y="3" width="1" height="1" fill="#1f2937"/>
<rect x="21" y="5" width="6" height="5" fill="#f59e0b"/>
<rect x="20" y="6" width="1" height="2" fill="#92400e"/>
<rect x="27" y="6" width="1" height="2" fill="#92400e"/>
<rect x="21" y="9" width="2" height="3" fill="#ca8a04"/>
<rect x="25" y="9" width="2" height="3" fill="#ca8a04"/>


<rect x="38" y="1" width="4" height="3" fill="#f8c79f"/>
<rect x="38" y="2" width="1" height="1" fill="#1f2937"/>
<rect x="41" y="2" width="1" height="1" fill="#1f2937"/>
<rect x="37" y="4" width="6" height="5" fill="#f59e0b"/>
<rect x="36" y="5" width="1" height="2" fill="#92400e"/>
<rect x="43" y="5" width="1" height="2" fill="#92400e"/>
<rect x="37" y="9" width="2" height="4" fill="#ca8a04"/>
<rect x="41" y="9" width="2" height="3" fill="#ca8a04"/>


<rect x="54" y="2" width="4" height="3" fill="#f8c79f"/>
<rect x="54" y="3" width="1" height="1" fill="#1f2937"/>
<rect x="57" y="3" width="1" height="1" fill="#1f2937"/>
<rect x="53" y="5" width="6" height="5" fill="#f59e0b"/>
<rect x="52" y="6" width="1" height="2" fill="#92400e"/>
<rect x="59" y="6" width="1" height="2" fill="#92400e"/>
<rect x="53" y="9" width="2" height="3" fill="#ca8a04"/>
<rect x="57" y="9" width="2" height="4" fill="#ca8a04"/>


<rect x="70" y="1" width="4" height="3" fill="#f8c79f"/>
<rect x="70" y="2" width="1" height="1" fill="#1f2937"/>
<rect x="73" y="2" width="1" height="1" fill="#1f2937"/>
<rect x="69" y="4" width="6" height="5" fill="#f59e0b"/>
<rect x="68" y="5" width="1" height="2" fill="#92400e"/>
<rect x="75" y="5" width="1" height="2" fill="#92400e"/>
<rect x="69" y="9" width="2" height="3" fill="#ca8a04"/>
<rect x="73" y="9" width="2" height="3" fill="#ca8a04"/>
<rect x="76" y="7" width="3" height="1" fill="#a16207"/><rect x="78" y="6" width="1" height="3" fill="#d97706"/>
<rect x="67" y="2" width="1" height="1" fill="#fde047"/><rect x="76" y="2" width="1" height="1" fill="#fde047"/>
<rect x="86" y="2" width="4" height="3" fill="#f8c79f"/>
<rect x="86" y="3" width="1" height="1" fill="#1f2937"/>
<rect x="89" y="3" width="1" height="1" fill="#1f2937"/>
<rect x="85" y="5" width="6" height="5" fill="#f59e0b"/>
<rect x="84" y="6" width="1" height="2" fill="#92400e"/>
<rect x="91" y="6" width="1" height="2" fill="#92400e"/>
<rect x="85" y="9" width="2" height="4" fill="#ca8a04"/>
<rect x="89" y="9" width="2" height="3" fill="#ca8a04"/>
<rect x="92" y="7" width="3" height="1" fill="#a16207"/><rect x="94" y="6" width="1" height="3" fill="#d97706"/>
<rect x="83" y="2" width="1" height="1" fill="#fde047"/><rect x="92" y="2" width="1" height="1" fill="#fde047"/>
<rect x="102" y="1" width="4" height="3" fill="#f8c79f"/>
<rect x="102" y="2" width="1" height="1" fill="#1f2937"/>
<rect x="105" y="2" width="1" height="1" fill="#1f2937"/>
<rect x="101" y="4" width="6" height="5" fill="#f59e0b"/>
<rect x="100" y="5" width="1" height="2" fill="#92400e"/>
<rect x="107" y="5" width="1" height="2" fill="#92400e"/>
<rect x="101" y="9" width="2" height="3" fill="#ca8a04"/>
<rect x="105" y="9" width="2" height="4" fill="#ca8a04"/>
<rect x="108" y="7" width="3" height="1" fill="#a16207"/><rect x="110" y="6" width="1" height="3" fill="#d97706"/>
<rect x="99" y="2" width="1" height="1" fill="#fde047"/><rect x="108" y="2" width="1" height="1" fill="#fde047"/>
<rect x="6" y="17" width="4" height="3" fill="#f8c79f"/>
<rect x="6" y="18" width="1" height="1" fill="#1f2937"/>
<rect x="9" y="18" width="1" height="1" fill="#1f2937"/>
<rect x="5" y="20" width="6" height="5" fill="#f59e0b"/>
<rect x="4" y="21" width="1" height="2" fill="#92400e"/>
<rect x="11" y="21" width="1" height="2" fill="#92400e"/>
<rect x="5" y="25" width="2" height="3" fill="#ca8a04"/>
<rect x="9" y="25" width="2" height="3" fill="#ca8a04"/>


<rect x="22" y="18" width="4" height="3" fill="#f8c79f"/>
<rect x="22" y="19" width="1" height="1" fill="#1f2937"/>
<rect x="25" y="19" width="1" height="1" fill="#1f2937"/>
<rect x="21" y="21" width="6" height="5" fill="#f59e0b"/>
<rect x="20" y="22" width="1" height="2" fill="#92400e"/>
<rect x="27" y="22" width="1" height="2" fill="#92400e"/>
<rect x="21" y="25" width="2" height="3" fill="#ca8a04"/>
<rect x="25" y="25" width="2" height="3" fill="#ca8a04"/>


<rect x="38" y="17" width="4" height="3" fill="#f8c79f"/>
<rect x="38" y="18" width="1" height="1" fill="#1f2937"/>
<rect x="41" y="18" width="1" height="1" fill="#1f2937"/>
<rect x="37" y="20" width="6" height="5" fill="#f59e0b"/>
<rect x="36" y="21" width="1" height="2" fill="#92400e"/>
<rect x="43" y="21" width="1" height="2" fill="#92400e"/>
<rect x="37" y="25" width="2" height="4" fill="#ca8a04"/>
<rect x="41" y="25" width="2" height="3" fill="#ca8a04"/>


<rect x="54" y="18" width="4" height="3" fill="#f8c79f"/>
<rect x="54" y="19" width="1" height="1" fill="#1f2937"/>
<rect x="57" y="19" width="1" height="1" fill="#1f2937"/>
<rect x="53" y="21" width="6" height="5" fill="#f59e0b"/>
<rect x="52" y="22" width="1" height="2" fill="#92400e"/>
<rect x="59" y="22" width="1" height="2" fill="#92400e"/>
<rect x="53" y="25" width="2" height="3" fill="#ca8a04"/>
<rect x="57" y="25" width="2" height="4" fill="#ca8a04"/>


<rect x="70" y="17" width="4" height="3" fill="#f8c79f"/>
<rect x="70" y="18" width="1" height="1" fill="#1f2937"/>
<rect x="73" y="18" width="1" height="1" fill="#1f2937"/>
<rect x="69" y="20" width="6" height="5" fill="#f59e0b"/>
<rect x="68" y="21" width="1" height="2" fill="#92400e"/>
<rect x="75" y="21" width="1" height="2" fill="#92400e"/>
<rect x="69" y="25" width="2" height="3" fill="#ca8a04"/>
<rect x="73" y="25" width="2" height="3" fill="#ca8a04"/>
<rect x="76" y="23" width="3" height="1" fill="#a16207"/><rect x="78" y="22" width="1" height="3" fill="#d97706"/>
<rect x="67" y="18" width="1" height="1" fill="#fde047"/><rect x="76" y="18" width="1" height="1" fill="#fde047"/>
<rect x="86" y="18" width="4" height="3" fill="#f8c79f"/>
<rect x="86" y="19" width="1" height="1" fill="#1f2937"/>
<rect x="89" y="19" width="1" height="1" fill="#1f2937"/>
<rect x="85" y="21" width="6" height="5" fill="#f59e0b"/>
<rect x="84" y="22" width="1" height="2" fill="#92400e"/>
<rect x="91" y="22" width="1" height="2" fill="#92400e"/>
<rect x="85" y="25" width="2" height="4" fill="#ca8a04"/>
<rect x="89" y="25" width="2" height="3" fill="#ca8a04"/>
<rect x="92" y="23" width="3" height="1" fill="#a16207"/><rect x="94" y="22" width="1" height="3" fill="#d97706"/>
<rect x="83" y="18" width="1" height="1" fill="#fde047"/><rect x="92" y="18" width="1" height="1" fill="#fde047"/>
<rect x="102" y="17" width="4" height="3" fill="#f8c79f"/>
<rect x="102" y="18" width="1" height="1" fill="#1f2937"/>
<rect x="105" y="18" width="1" height="1" fill="#1f2937"/>
<rect x="101" y="20" width="6" height="5" fill="#f59e0b"/>
<rect x="100" y="21" width="1" height="2" fill="#92400e"/>
<rect x="107" y="21" width="1" height="2" fill="#92400e"/>
<rect x="101" y="25" width="2" height="3" fill="#ca8a04"/>
<rect x="105" y="25" width="2" height="4" fill="#ca8a04"/>
<rect x="108" y="23" width="3" height="1" fill="#a16207"/><rect x="110" y="22" width="1" height="3" fill="#d97706"/>
<rect x="99" y="18" width="1" height="1" fill="#fde047"/><rect x="108" y="18" width="1" height="1" fill="#fde047"/>
<rect x="6" y="33" width="4" height="3" fill="#f8c79f"/>
<rect x="6" y="34" width="1" height="1" fill="#1f2937"/>
<rect x="9" y="34" width="1" height="1" fill="#1f2937"/>
<rect x="5" y="36" width="6" height="5" fill="#f59e0b"/>
<rect x="4" y="37" width="1" height="2" fill="#92400e"/>
<rect x="11" y="37" width="1" height="2" fill="#92400e"/>
<rect x="5" y="41" width="2" height="3" fill="#ca8a04"/>
<rect x="9" y="41" width="2" height="3" fill="#ca8a04"/>


<rect x="22" y="34" width="4" height="3" fill="#f8c79f"/>
<rect x="22" y="35" width="1" height="1" fill="#1f2937"/>
<rect x="25" y="35" width="1" height="1" fill="#1f2937"/>
<rect x="21" y="37" width="6" height="5" fill="#f59e0b"/>
<rect x="20" y="38" width="1" height="2" fill="#92400e"/>
<rect x="27" y="38" width="1" height="2" fill="#92400e"/>
<rect x="21" y="41" width="2" height="3" fill="#ca8a04"/>
<rect x="25" y="41" width="2" height="3" fill="#ca8a04"/>


<rect x="38" y="33" width="4" height="3" fill="#f8c79f"/>
<rect x="38" y="34" width="1" height="1" fill="#1f2937"/>
<rect x="41" y="34" width="1" height="1" fill="#1f2937"/>
<rect x="37" y="36" width="6" height="5" fill="#f59e0b"/>
<rect x="36" y="37" width="1" height="2" fill="#92400e"/>
<rect x="43" y="37" width="1" height="2" fill="#92400e"/>
<rect x="37" y="41" width="2" height="4" fill="#ca8a04"/>
<rect x="41" y="41" width="2" height="3" fill="#ca8a04"/>


<rect x="54" y="34" width="4" height="3" fill="#f8c79f"/>
<rect x="54" y="35" width="1" height="1" fill="#1f2937"/>
<rect x="57" y="35" width="1" height="1" fill="#1f2937"/>
<rect x="53" y="37" width="6" height="5" fill="#f59e0b"/>
<rect x="52" y="38" width="1" height="2" fill="#92400e"/>
<rect x="59" y="38" width="1" height="2" fill="#92400e"/>
<rect x="53" y="41" width="2" height="3" fill="#ca8a04"/>
<rect x="57" y="41" width="2" height="4" fill="#ca8a04"/>


<rect x="70" y="33" width="4" height="3" fill="#f8c79f"/>
<rect x="70" y="34" width="1" height="1" fill="#1f2937"/>
<rect x="73" y="34" width="1" height="1" fill="#1f2937"/>
<rect x="69" y="36" width="6" height="5" fill="#f59e0b"/>
<rect x="68" y="37" width="1" height="2" fill="#92400e"/>
<rect x="75" y="37" width="1" height="2" fill="#92400e"/>
<rect x="69" y="41" width="2" height="3" fill="#ca8a04"/>
<rect x="73" y="41" width="2" height="3" fill="#ca8a04"/>
<rect x="76" y="39" width="3" height="1" fill="#a16207"/><rect x="78" y="38" width="1" height="3" fill="#d97706"/>
<rect x="67" y="34" width="1" height="1" fill="#fde047"/><rect x="76" y="34" width="1" height="1" fill="#fde047"/>
<rect x="86" y="34" width="4" height="3" fill="#f8c79f"/>
<rect x="86" y="35" width="1" height="1" fill="#1f2937"/>
<rect x="89" y="35" width="1" height="1" fill="#1f2937"/>
<rect x="85" y="37" width="6" height="5" fill="#f59e0b"/>
<rect x="84" y="38" width="1" height="2" fill="#92400e"/>
<rect x="91" y="38" width="1" height="2" fill="#92400e"/>
<rect x="85" y="41" width="2" height="4" fill="#ca8a04"/>
<rect x="89" y="41" width="2" height="3" fill="#ca8a04"/>
<rect x="92" y="39" width="3" height="1" fill="#a16207"/><rect x="94" y="38" width="1" height="3" fill="#d97706"/>
<rect x="83" y="34" width="1" height="1" fill="#fde047"/><rect x="92" y="34" width="1" height="1" fill="#fde047"/>
<rect x="102" y="33" width="4" height="3" fill="#f8c79f"/>
<rect x="102" y="34" width="1" height="1" fill="#1f2937"/>
<rect x="105" y="34" width="1" height="1" fill="#1f2937"/>
<rect x="101" y="36" width="6" height="5" fill="#f59e0b"/>
<rect x="100" y="37" width="1" height="2" fill="#92400e"/>
<rect x="107" y="37" width="1" height="2" fill="#92400e"/>
<rect x="101" y="41" width="2" height="3" fill="#ca8a04"/>
<rect x="105" y="41" width="2" height="4" fill="#ca8a04"/>
<rect x="108" y="39" width="3" height="1" fill="#a16207"/><rect x="110" y="38" width="1" height="3" fill="#d97706"/>
<rect x="99" y="34" width="1" height="1" fill="#fde047"/><rect x="108" y="34" width="1" height="1" fill="#fde047"/></svg>