<svg xmlns="http://www.w3.org/2000/svg" width="64" height="16" viewBox="0 0 64 16" shape-rendering="crispEdges">
  <rect width="64" height="16" fill="none"/>
  <g transform="translate(0,0)">
    <rect x="6" y="1" width="4" height="3" fill="#f8c79f"/>
    <rect x="5" y="4" width="6" height="5" fill="#65a30d"/>
    <rect x="5" y="9" width="2" height="4" fill="#f59e0b"/>
    <rect x="9" y="9" width="2" height="4" fill="#f59e0b"/>
    <rect x="4" y="5" width="1" height="2" fill="#3f6212"/>
    <rect x="11" y="5" width="1" height="2" fill="#3f6212"/>
    
    
  </g>
  <g transform="translate(16,0)">
    <rect x="6" y="1" width="4" height="3" fill="#f8c79f"/>
    <rect x="5" y="4" width="6" height="5" fill="#65a30d"/>
    <rect x="5" y="10" width="2" height="3" fill="#f59e0b"/>
    <rect x="9" y="8" width="2" height="5" fill="#f59e0b"/>
    <rect x="4" y="6" width="1" height="2" fill="#3f6212"/>
    <rect x="11" y="4" width="1" height="3" fill="#3f6212"/>
    
    
  </g>
  <g transform="translate(32,0)">
    <rect x="6" y="1" width="4" height="3" fill="#f8c79f"/>
    <rect x="5" y="4" width="6" height="5" fill="#65a30d"/>
    <rect x="5" y="9" width="2" height="4" fill="#f59e0b"/>
    <rect x="9" y="9" width="2" height="4" fill="#f59e0b"/>
    <rect x="4" y="5" width="1" height="2" fill="#3f6212"/>
    <rect x="11" y="5" width="1" height="2" fill="#3f6212"/>
    
    
  </g>
  <g transform="translate(48,0)">
    <rect x="6" y="1" width="4" height="3" fill="#f8c79f"/>
    <rect x="5" y="4" width="6" height="5" fill="#65a30d"/>
    <rect x="5" y="8" width="2" height="5" fill="#f59e0b"/>
    <rect x="9" y="10" width="2" height="3" fill="#f59e0b"/>
    <rect x="4" y="4" width="1" height="3" fill="#3f6212"/>
    <rect x="11" y="6" width="1" height="2" fill="#3f6212"/>
    
    
  </g>
</svg>
